<svg width="32" height="32" viewBox="0 0 32 32" fill="none" xmlns="http://www.w3.org/2000/svg">
  <path
    d="M9.02148 4.5C9.84991 4.5 10.5215 5.17157 10.5215 6C10.5215 6.82843 9.84991 7.5 9.02148 7.5H5.5V25.5H9.02148L9.1748 25.5078C9.93133 25.5845 10.5215 26.2233 10.5215 27C10.5215 27.7767 9.93132 28.4155 9.1748 28.4922L9.02148 28.5H5.5C3.84315 28.5 2.5 27.1568 2.5 25.5V7.5C2.5 5.84315 3.84315 4.5 5.5 4.5H9.02148ZM27.5 4.5C29.1569 4.5 30.5 5.84315 30.5 7.5V25.5C30.5 27.1568 29.1568 28.5 27.5 28.5H23.9785C23.1501 28.5 22.4785 27.8284 22.4785 27C22.4785 26.1716 23.1501 25.5 23.9785 25.5H27.5V7.5H23.9785C23.1501 7.5 22.4785 6.82843 22.4785 6C22.4785 5.17157 23.1501 4.5 23.9785 4.5H27.5ZM17 10.5C17.8284 10.5 18.5 11.1716 18.5 12V15.5H22L22.1533 15.5078C22.9097 15.5846 23.5 16.2233 23.5 17C23.5 17.7767 22.9097 18.4154 22.1533 18.4922L22 18.5H18.5V22C18.5 22.8284 17.8284 23.5 17 23.5C16.1716 23.5 15.5 22.8284 15.5 22V18.5H12C11.1716 18.5 10.5 17.8284 10.5 17C10.5 16.1716 11.1716 15.5 12 15.5H15.5V12C15.5 11.1716 16.1716 10.5 17 10.5Z"
    fill="currentColor"
  />
</svg>
