<svg width="32" height="32" viewBox="0 0 32 32" fill="none" xmlns="http://www.w3.org/2000/svg">
  <path
    d="M8.52148 4.5C9.34991 4.5 10.0215 5.17157 10.0215 6C10.0215 6.82843 9.34991 7.5 8.52148 7.5H5V25.5H8.52148L8.6748 25.5078C9.43133 25.5845 10.0215 26.2233 10.0215 27C10.0215 27.7767 9.43133 28.4155 8.6748 28.4922L8.52148 28.5H5C3.34315 28.5 2 27.1568 2 25.5V7.5C2 5.84315 3.34315 4.5 5 4.5H8.52148ZM27 4.5C28.6569 4.5 30 5.84315 30 7.5V25.5C30 27.1568 28.6568 28.5 27 28.5H23.4785C22.6501 28.5 21.9785 27.8284 21.9785 27C21.9785 26.1716 22.6501 25.5 23.4785 25.5H27V7.5H23.4785C22.6501 7.5 21.9785 6.82843 21.9785 6C21.9785 5.17157 22.6501 4.5 23.4785 4.5H27ZM18.1533 10.5078C18.9097 10.5846 19.5 11.2233 19.5 12C19.5 12.7767 18.9097 13.4154 18.1533 13.4922L18 13.5H17.5V20.5H18L18.1533 20.5078C18.9097 20.5846 19.5 21.2233 19.5 22C19.5 22.7767 18.9097 23.4154 18.1533 23.4922L18 23.5H14C13.1716 23.5 12.5 22.8284 12.5 22C12.5 21.1716 13.1716 20.5 14 20.5H14.5V13.5H14C13.1716 13.5 12.5 12.8284 12.5 12C12.5 11.1716 13.1716 10.5 14 10.5H18L18.1533 10.5078Z"
    fill="currentColor"
  />
</svg>
