<svg width="32" height="32" viewBox="0 0 32 32" fill="none" xmlns="http://www.w3.org/2000/svg">
  <path
    d="M9.02148 4.5C9.84991 4.5 10.5215 5.17157 10.5215 6C10.5215 6.82843 9.84991 7.5 9.02148 7.5H5.5V25.5H9.02148L9.1748 25.5078C9.93133 25.5845 10.5215 26.2233 10.5215 27C10.5215 27.7767 9.93132 28.4155 9.1748 28.4922L9.02148 28.5H5.5C3.84315 28.5 2.5 27.1568 2.5 25.5V7.5C2.5 5.84315 3.84315 4.5 5.5 4.5H9.02148ZM27.5 4.5C29.1569 4.5 30.5 5.84315 30.5 7.5V25.5C30.5 27.1568 29.1568 28.5 27.5 28.5H23.9785C23.1501 28.5 22.4785 27.8284 22.4785 27C22.4785 26.1716 23.1501 25.5 23.9785 25.5H27.5V7.5H23.9785C23.1501 7.5 22.4785 6.82843 22.4785 6C22.4785 5.17157 23.1501 4.5 23.9785 4.5H27.5ZM17.1533 21.5078C17.9097 21.5846 18.5 22.2233 18.5 23C18.5 23.7767 17.9097 24.4154 17.1533 24.4922L17 24.5H12C11.1716 24.5 10.5 23.8284 10.5 23C10.5 22.1716 11.1716 21.5 12 21.5H17L17.1533 21.5078ZM21.1533 16.0078C21.9097 16.0846 22.5 16.7233 22.5 17.5C22.5 18.2767 21.9097 18.9154 21.1533 18.9922L21 19H12C11.1716 19 10.5 18.3284 10.5 17.5C10.5 16.6716 11.1716 16 12 16H21L21.1533 16.0078ZM21.1533 10.5078C21.9097 10.5846 22.5 11.2233 22.5 12C22.5 12.7767 21.9097 13.4154 21.1533 13.4922L21 13.5H12C11.1716 13.5 10.5 12.8284 10.5 12C10.5 11.1716 11.1716 10.5 12 10.5H21L21.1533 10.5078Z"
    fill="currentColor"
  />
</svg>
